<?xml version="1.0" encoding="UTF-8"?>
<svg width="700pt" height="700pt" version="1.1" viewBox="0 0 700 700" xmlns="http://www.w3.org/2000/svg" xmlns:xlink="http://www.w3.org/1999/xlink">
 <defs>
  <symbol id="u" overflow="visible">
   <path d="m7.9375-0.46875c-0.40625 0.21094-0.83594 0.36719-1.2812 0.46875-0.4375 0.11328-0.89844 0.17188-1.375 0.17188-1.4492 0-2.5938-0.39844-3.4375-1.2031-0.83594-0.8125-1.25-1.9062-1.25-3.2812 0-1.3828 0.41406-2.4766 1.25-3.2812 0.84375-0.80078 1.9883-1.2031 3.4375-1.2031 0.47656 0 0.9375 0.054687 1.375 0.15625 0.44531 0.10547 0.875 0.26562 1.2812 0.48438v1.7812c-0.40625-0.28125-0.8125-0.48438-1.2188-0.60938-0.39844-0.13281-0.82031-0.20312-1.2656-0.20312-0.79297 0-1.418 0.25781-1.875 0.76562-0.46094 0.51172-0.6875 1.2148-0.6875 2.1094 0 0.89844 0.22656 1.6016 0.6875 2.1094 0.45703 0.5 1.082 0.75 1.875 0.75 0.44531 0 0.86719-0.0625 1.2656-0.1875 0.40625-0.13281 0.8125-0.34375 1.2188-0.625z"/>
  </symbol>
  <symbol id="c" overflow="visible">
   <path d="m5.8125-4.7188c-0.17969-0.082031-0.35938-0.14453-0.54688-0.1875-0.17969-0.039062-0.35547-0.0625-0.53125-0.0625-0.53125 0-0.94531 0.17188-1.2344 0.51562-0.29297 0.34375-0.4375 0.83594-0.4375 1.4688v2.9844h-2.0625v-6.4844h2.0625v1.0625c0.26953-0.42578 0.57812-0.73438 0.92188-0.92188 0.34375-0.19531 0.75781-0.29688 1.25-0.29688 0.0625 0 0.13281 0.007813 0.21875 0.015625 0.082031 0 0.20312 0.011719 0.35938 0.03125z"/>
  </symbol>
  <symbol id="b" overflow="visible">
   <path d="m7.4688-3.2656v0.59375h-4.8438c0.050781 0.49219 0.22656 0.85938 0.53125 1.1094 0.30078 0.24219 0.71875 0.35938 1.25 0.35938 0.4375 0 0.88281-0.0625 1.3438-0.1875 0.45703-0.13281 0.92578-0.33203 1.4062-0.59375v1.5938c-0.49219 0.1875-0.98047 0.32812-1.4688 0.42188-0.49219 0.09375-0.98047 0.14062-1.4688 0.14062-1.168 0-2.0781-0.29688-2.7344-0.89062-0.64844-0.60156-0.96875-1.4414-0.96875-2.5156 0-1.0625 0.31641-1.8945 0.95312-2.5 0.63281-0.60156 1.5156-0.90625 2.6406-0.90625 1.0195 0 1.832 0.30859 2.4375 0.92188 0.61328 0.61719 0.92188 1.4336 0.92188 2.4531zm-2.125-0.6875c0-0.39453-0.11719-0.71094-0.34375-0.95312-0.23047-0.23828-0.53125-0.35938-0.90625-0.35938-0.40625 0-0.73438 0.11719-0.98438 0.34375-0.25 0.21875-0.40625 0.54297-0.46875 0.96875z"/>
  </symbol>
  <symbol id="f" overflow="visible">
   <path d="m3.9062-2.9219c-0.4375 0-0.76562 0.074219-0.98438 0.21875-0.21875 0.14844-0.32812 0.36719-0.32812 0.65625 0 0.26172 0.085938 0.46875 0.26562 0.625 0.17578 0.14844 0.42188 0.21875 0.73438 0.21875 0.39453 0 0.72266-0.14062 0.98438-0.42188 0.26953-0.28125 0.40625-0.63281 0.40625-1.0625v-0.23438zm3.1719-0.78125v3.7031h-2.0938v-0.96875c-0.28125 0.39844-0.60156 0.6875-0.95312 0.875-0.34375 0.17578-0.76172 0.26562-1.25 0.26562-0.67969 0-1.2266-0.19141-1.6406-0.57812-0.41797-0.39453-0.625-0.91016-0.625-1.5469 0-0.75781 0.25781-1.3164 0.78125-1.6719 0.51953-0.35156 1.3438-0.53125 2.4688-0.53125h1.2188v-0.15625c0-0.33203-0.13281-0.57031-0.39062-0.71875-0.26172-0.15625-0.66797-0.23438-1.2188-0.23438-0.4375 0-0.85156 0.046875-1.2344 0.14062-0.38672 0.085938-0.74219 0.21484-1.0625 0.39062v-1.5781c0.44531-0.10156 0.89453-0.17969 1.3438-0.23438 0.44531-0.0625 0.89453-0.09375 1.3438-0.09375 1.1641 0 2.0078 0.23047 2.5312 0.6875 0.51953 0.46094 0.78125 1.2109 0.78125 2.25z"/>
  </symbol>
  <symbol id="a" overflow="visible">
   <path d="m3.2656-8.3281v1.8438h2.125v1.4844h-2.125v2.75c0 0.30469 0.054687 0.50781 0.17188 0.60938 0.125 0.10547 0.36328 0.15625 0.71875 0.15625h1.0625v1.4844h-1.7812c-0.8125 0-1.3906-0.17188-1.7344-0.51562s-0.51562-0.92188-0.51562-1.7344v-2.75h-1.0312v-1.4844h1.0312v-1.8438z"/>
  </symbol>
  <symbol id="l" overflow="visible">
   <path d="m5.4062-5.5312v-3.4844h2.0938v9.0156h-2.0938v-0.9375c-0.28125 0.38672-0.59375 0.66797-0.9375 0.84375-0.34375 0.17578-0.74609 0.26562-1.2031 0.26562-0.79297 0-1.4492-0.31641-1.9688-0.95312-0.51172-0.63281-0.76562-1.4531-0.76562-2.4531s0.25391-1.8164 0.76562-2.4531c0.51953-0.63281 1.1758-0.95312 1.9688-0.95312 0.44531 0 0.84375 0.089844 1.1875 0.26562 0.35156 0.17969 0.67188 0.46094 0.95312 0.84375zm-1.3594 4.1875c0.4375 0 0.76953-0.16016 1-0.48438 0.23828-0.32031 0.35938-0.78906 0.35938-1.4062 0-0.61328-0.12109-1.082-0.35938-1.4062-0.23047-0.33203-0.5625-0.5-1-0.5-0.44922 0-0.78906 0.16797-1.0156 0.5-0.23047 0.32422-0.34375 0.79297-0.34375 1.4062 0 0.61719 0.11328 1.0859 0.34375 1.4062 0.22656 0.32422 0.56641 0.48438 1.0156 0.48438z"/>
  </symbol>
  <symbol id="k" overflow="visible">
   <path d="m4.4531-1.3438c0.4375 0 0.76953-0.16016 1-0.48438 0.23828-0.32031 0.35938-0.78906 0.35938-1.4062 0-0.61328-0.12109-1.082-0.35938-1.4062-0.23047-0.33203-0.5625-0.5-1-0.5-0.44922 0-0.79297 0.16797-1.0312 0.5-0.24219 0.32422-0.35938 0.79297-0.35938 1.4062 0 0.61719 0.11719 1.0859 0.35938 1.4062 0.23828 0.32422 0.58203 0.48438 1.0312 0.48438zm-1.3906-4.1875c0.28906-0.38281 0.60938-0.66406 0.95312-0.84375 0.35156-0.17578 0.75391-0.26562 1.2031-0.26562 0.80078 0 1.457 0.32031 1.9688 0.95312 0.50781 0.63672 0.76562 1.4531 0.76562 2.4531s-0.25781 1.8203-0.76562 2.4531c-0.51172 0.63672-1.168 0.95312-1.9688 0.95312-0.44922 0-0.85156-0.089844-1.2031-0.26562-0.34375-0.1875-0.66406-0.46875-0.95312-0.84375v0.9375h-2.0625v-9.0156h2.0625z"/>
  </symbol>
  <symbol id="e" overflow="visible">
   <path d="m0.14062-6.4844h2.0781l1.7344 4.4062 1.4844-4.4062h2.0781l-2.7344 7.0938c-0.27344 0.72656-0.58984 1.2344-0.95312 1.5156-0.36719 0.28906-0.84375 0.4375-1.4375 0.4375h-1.2031v-1.3594h0.64062c0.35156 0 0.60938-0.058594 0.76562-0.17188 0.16406-0.11719 0.28906-0.32031 0.375-0.60938l0.0625-0.17188z"/>
  </symbol>
  <symbol id="j" overflow="visible">
   <path d="m0.35938-8.6406h2.125l1.5 6.2812 1.4844-6.2812h2.1406l1.4844 6.2812 1.5-6.2812h2.1094l-2.0312 8.6406h-2.5781l-1.5625-6.5781-1.5469 6.5781h-2.5781z"/>
  </symbol>
  <symbol id="i" overflow="visible">
   <path d="m7.5156-3.9531v3.9531h-2.0781v-3.0156c0-0.5625-0.015625-0.94531-0.046875-1.1562-0.023437-0.21875-0.0625-0.37891-0.125-0.48438-0.085937-0.13281-0.19922-0.23828-0.34375-0.3125-0.13672-0.070312-0.29297-0.10938-0.46875-0.10938-0.42969 0-0.76562 0.16797-1.0156 0.5-0.25 0.33594-0.375 0.79688-0.375 1.3906v3.1875h-2.0625v-9.0156h2.0625v3.4844c0.3125-0.38281 0.64453-0.66406 1-0.84375 0.35156-0.17578 0.74219-0.26562 1.1719-0.26562 0.75 0 1.3164 0.23047 1.7031 0.6875 0.38281 0.46094 0.57812 1.125 0.57812 2z"/>
  </symbol>
  <symbol id="h" overflow="visible">
   <path d="m0.92188-2.5312v-3.9531h2.0938v0.64062c0 0.35547-0.007813 0.79688-0.015625 1.3281v1.0625c0 0.52344 0.007812 0.89844 0.03125 1.125 0.03125 0.23047 0.078125 0.39844 0.14062 0.5 0.09375 0.13672 0.20703 0.24219 0.34375 0.3125 0.13281 0.074219 0.28906 0.10938 0.46875 0.10938 0.42578 0 0.76562-0.16016 1.0156-0.48438 0.25-0.33203 0.375-0.79688 0.375-1.3906v-3.2031h2.0781v6.4844h-2.0781v-0.9375c-0.3125 0.375-0.64844 0.65625-1 0.84375-0.34375 0.17578-0.73047 0.26562-1.1562 0.26562-0.74219 0-1.3086-0.22656-1.7031-0.6875-0.39844-0.45703-0.59375-1.1289-0.59375-2.0156z"/>
  </symbol>
  <symbol id="g" overflow="visible">
   <path d="m7.5156-3.9531v3.9531h-2.0781v-3.0156c0-0.5625-0.015625-0.94531-0.046875-1.1562-0.023437-0.21875-0.0625-0.37891-0.125-0.48438-0.085937-0.13281-0.19922-0.23828-0.34375-0.3125-0.13672-0.070312-0.29297-0.10938-0.46875-0.10938-0.42969 0-0.76562 0.16797-1.0156 0.5-0.25 0.33594-0.375 0.79688-0.375 1.3906v3.1875h-2.0625v-6.4844h2.0625v0.95312c0.3125-0.38281 0.64453-0.66406 1-0.84375 0.35156-0.17578 0.74219-0.26562 1.1719-0.26562 0.75 0 1.3164 0.23047 1.7031 0.6875 0.38281 0.46094 0.57812 1.125 0.57812 2z"/>
  </symbol>
  <symbol id="t" overflow="visible">
   <path d="m1-6.4844h2.0625v6.4844h-2.0625zm0-2.5312h2.0625v1.7031h-2.0625z"/>
  </symbol>
  <symbol id="s" overflow="visible">
   <path d="m1-9.0156h2.0625v9.0156h-2.0625z"/>
  </symbol>
  <symbol id="r" overflow="visible">
   <path d="m5.2656-9.0156v1.3594h-1.1406c-0.30469 0-0.51172 0.058594-0.625 0.17188-0.11719 0.10547-0.17188 0.28906-0.17188 0.54688v0.45312h1.7812v1.4844h-1.7812v5h-2.0781v-5h-1.0312v-1.4844h1.0312v-0.45312c0-0.70703 0.19531-1.2266 0.59375-1.5625 0.39453-0.34375 1.0039-0.51562 1.8281-0.51562z"/>
  </symbol>
  <symbol id="d" overflow="visible">
   <path d="m4.0781-5.1562c-0.46094 0-0.80859 0.16797-1.0469 0.5-0.24219 0.32422-0.35938 0.79688-0.35938 1.4219 0 0.61719 0.11719 1.0898 0.35938 1.4219 0.23828 0.33594 0.58594 0.5 1.0469 0.5 0.45703 0 0.80469-0.16406 1.0469-0.5 0.23828-0.33203 0.35938-0.80469 0.35938-1.4219 0-0.625-0.12109-1.0977-0.35938-1.4219-0.24219-0.33203-0.58984-0.5-1.0469-0.5zm0-1.4844c1.1133 0 1.9844 0.30469 2.6094 0.90625 0.63281 0.60547 0.95312 1.4375 0.95312 2.5s-0.32031 1.8984-0.95312 2.5c-0.625 0.60547-1.4961 0.90625-2.6094 0.90625-1.1172 0-1.9922-0.30078-2.625-0.90625-0.625-0.60156-0.9375-1.4375-0.9375-2.5s0.3125-1.8945 0.9375-2.5c0.63281-0.60156 1.5078-0.90625 2.625-0.90625z"/>
  </symbol>
  <symbol id="q" overflow="visible">
   <path d="m7-5.4062c0.26953-0.40625 0.58203-0.71094 0.9375-0.92188 0.36328-0.20703 0.75781-0.3125 1.1875-0.3125 0.75 0 1.3164 0.23047 1.7031 0.6875 0.39453 0.46094 0.59375 1.125 0.59375 2v3.9531h-2.0938v-3.375c0.007813-0.050781 0.015625-0.10156 0.015625-0.15625v-0.23438c0-0.45703-0.070312-0.78906-0.20312-1-0.13672-0.20703-0.35547-0.3125-0.65625-0.3125-0.38672 0-0.6875 0.16406-0.90625 0.48438-0.21875 0.32422-0.32812 0.79297-0.32812 1.4062v3.1875h-2.0938v-3.375c0-0.71875-0.0625-1.1797-0.1875-1.3906-0.125-0.20703-0.34375-0.3125-0.65625-0.3125-0.39844 0-0.70312 0.16797-0.92188 0.5-0.21875 0.32422-0.32812 0.78906-0.32812 1.3906v3.1875h-2.0781v-6.4844h2.0781v0.95312c0.25781-0.375 0.55078-0.64844 0.875-0.82812 0.33203-0.1875 0.69531-0.28125 1.0938-0.28125 0.44531 0 0.84375 0.10938 1.1875 0.32812 0.34375 0.21094 0.60156 0.51172 0.78125 0.90625z"/>
  </symbol>
  <symbol id="p" overflow="visible">
   <path d="m1.0938-8.6406h2.4844l3.1406 5.9219v-5.9219h2.125v8.6406h-2.5l-3.1406-5.9375v5.9375h-2.1094z"/>
  </symbol>
  <symbol id="o" overflow="visible">
   <path d="m1.0938-8.6406h3.6875c1.1016 0 1.9453 0.24609 2.5312 0.73438 0.59375 0.48047 0.89062 1.1719 0.89062 2.0781s-0.29688 1.6055-0.89062 2.0938c-0.58594 0.49219-1.4297 0.73438-2.5312 0.73438h-1.4688v3h-2.2188zm2.2188 1.6094v2.4219h1.2344c0.4375 0 0.76953-0.10156 1-0.3125 0.23828-0.21875 0.35938-0.51953 0.35938-0.90625 0-0.38281-0.12109-0.67969-0.35938-0.89062-0.23047-0.20703-0.5625-0.3125-1-0.3125z"/>
  </symbol>
  <symbol id="n" overflow="visible">
   <path d="m1-6.4844h2.0625v6.375c0 0.86328-0.21094 1.5234-0.625 1.9844-0.41797 0.45703-1.0234 0.6875-1.8125 0.6875h-1.0156v-1.3594h0.35938c0.39453 0 0.66406-0.089844 0.8125-0.26562 0.14453-0.17969 0.21875-0.52734 0.21875-1.0469zm0-2.5312h2.0625v1.7031h-2.0625z"/>
  </symbol>
  <symbol id="m" overflow="visible">
   <path d="m6.2344-6.2812v1.6875c-0.28125-0.1875-0.5625-0.32812-0.84375-0.42188s-0.57812-0.14062-0.89062-0.14062c-0.57422 0-1.0234 0.17188-1.3438 0.51562-0.32422 0.33594-0.48438 0.80469-0.48438 1.4062 0 0.60547 0.16016 1.0781 0.48438 1.4219 0.32031 0.33594 0.76953 0.5 1.3438 0.5 0.32031 0 0.62891-0.046875 0.92188-0.14062 0.28906-0.10156 0.5625-0.25 0.8125-0.4375v1.7031c-0.32422 0.11719-0.65234 0.20312-0.98438 0.26562-0.33594 0.0625-0.66797 0.09375-1 0.09375-1.1797 0-2.0938-0.30078-2.75-0.90625-0.65625-0.60156-0.98438-1.4375-0.98438-2.5 0-1.0703 0.32812-1.9062 0.98438-2.5 0.65625-0.60156 1.5703-0.90625 2.75-0.90625 0.33203 0 0.66406 0.03125 1 0.09375 0.33203 0.054687 0.66016 0.14062 0.98438 0.26562z"/>
  </symbol>
 </defs>
 <g>
  <path d="m240.85 384.41 327.46-40.34c42.711-4.7461 66.441-18.984 78.305-59.32l40.34-149.49c7.1172-26.102-9.4922-42.711-42.711-42.711h-476.95l-21.355-78.305c-2.3711-7.1172-9.4922-14.238-18.984-14.238h-94.914c-28.473 0-28.473 42.711 0 42.711h80.68l87.797 322.71c-28.473 33.219-14.238 97.289 47.457 97.289h374.91c26.102 0 26.102-40.34 0-40.34h-374.91c-28.473 0-23.73-35.594-7.1172-37.965zm382.04-170.85h-116.27v45.086h104.41zm-149.49 0h-123.39v45.086h123.39zm-156.61 0h-116.27l11.863 45.086h104.41zm-125.76-33.219h125.76v-47.457h-137.63l11.863 47.457zm158.98 0h123.39v-47.457h-123.39zm156.61 0h125.76l14.238-47.457h-140zm90.168 111.53h-90.168v18.984l54.578-4.7461c16.609-2.3711 28.473-4.7461 35.594-14.238zm-123.39 0h-123.39v37.965l123.39-14.238v-23.73zm-156.61 0h-94.914l14.238 52.203 80.68-9.4922v-42.711z" fill-rule="evenodd"/>
  <path d="m544.58 472.2c23.73 0 42.711 18.984 42.711 42.711 0 23.73-18.984 45.086-42.711 45.086-26.102 0-45.086-21.355-45.086-45.086 0-23.73 18.984-42.711 45.086-42.711zm0 30.848c-9.4922 0-14.238 4.7461-14.238 11.863 0 7.1172 4.7461 14.238 14.238 14.238 7.1172 0 11.863-7.1172 11.863-14.238 0-7.1172-4.7461-11.863-11.863-11.863z"/>
  <path d="m290.68 472.2c23.73 0 42.711 18.984 42.711 42.711 0 23.73-18.984 45.086-42.711 45.086-23.73 0-45.086-21.355-45.086-45.086 0-23.73 21.355-42.711 45.086-42.711zm0 30.848c-7.1172 0-14.238 4.7461-14.238 11.863 0 7.1172 7.1172 14.238 14.238 14.238 7.1172 0 11.863-7.1172 11.863-14.238 0-7.1172-4.7461-11.863-11.863-11.863z"/>
  <use x="10.679688" y="595.59375" xlink:href="#u"/>
  <use x="19.386719" y="595.59375" xlink:href="#c"/>
  <use x="25.234375" y="595.59375" xlink:href="#b"/>
  <use x="33.28125" y="595.59375" xlink:href="#f"/>
  <use x="41.289062" y="595.59375" xlink:href="#a"/>
  <use x="46.960938" y="595.59375" xlink:href="#b"/>
  <use x="55.007812" y="595.59375" xlink:href="#l"/>
  <use x="67.628906" y="595.59375" xlink:href="#k"/>
  <use x="76.125" y="595.59375" xlink:href="#e"/>
  <use x="87.988281" y="595.59375" xlink:href="#j"/>
  <use x="101.074219" y="595.59375" xlink:href="#f"/>
  <use x="109.082031" y="595.59375" xlink:href="#i"/>
  <use x="117.527344" y="595.59375" xlink:href="#e"/>
  <use x="125.261719" y="595.59375" xlink:href="#h"/>
  <use x="133.707031" y="595.59375" xlink:href="#g"/>
  <use x="142.152344" y="595.59375" xlink:href="#a"/>
  <use x="147.824219" y="595.59375" xlink:href="#t"/>
  <use x="151.890625" y="595.59375" xlink:href="#a"/>
  <use x="157.5625" y="595.59375" xlink:href="#s"/>
  <use x="161.628906" y="595.59375" xlink:href="#b"/>
  <use x="10.679688" y="607.457031" xlink:href="#r"/>
  <use x="15.839844" y="607.457031" xlink:href="#c"/>
  <use x="21.691406" y="607.457031" xlink:href="#d"/>
  <use x="29.839844" y="607.457031" xlink:href="#q"/>
  <use x="46.335938" y="607.457031" xlink:href="#a"/>
  <use x="52.007812" y="607.457031" xlink:href="#i"/>
  <use x="60.453125" y="607.457031" xlink:href="#b"/>
  <use x="72.628906" y="607.457031" xlink:href="#p"/>
  <use x="82.558594" y="607.457031" xlink:href="#d"/>
  <use x="90.710938" y="607.457031" xlink:href="#h"/>
  <use x="99.15625" y="607.457031" xlink:href="#g"/>
  <use x="111.734375" y="607.457031" xlink:href="#o"/>
  <use x="120.429688" y="607.457031" xlink:href="#c"/>
  <use x="126.28125" y="607.457031" xlink:href="#d"/>
  <use x="134.429688" y="607.457031" xlink:href="#n"/>
  <use x="138.5" y="607.457031" xlink:href="#b"/>
  <use x="146.546875" y="607.457031" xlink:href="#m"/>
  <use x="153.578125" y="607.457031" xlink:href="#a"/>
 </g>
</svg>
