<?xml version="1.0" encoding="UTF-8"?>
<svg id="Layer_4" data-name="Layer 4" xmlns="http://www.w3.org/2000/svg" viewBox="0 0 668.28 231">
  <defs>
    <style>
      .cls-1 {
        fill-rule: evenodd;
      }
    </style>
  </defs>
  <path class="cls-1" d="m468.82,160.81l80.94-9.97c10.56-1.17,16.42-4.69,19.35-14.66l9.97-36.95c1.76-6.45-2.35-10.56-10.56-10.56h-117.89l-5.28-19.35c-.59-1.76-2.35-3.52-4.69-3.52h-23.46c-7.04,0-7.04,10.56,0,10.56h19.94l21.7,79.77c-7.04,8.21-3.52,24.05,11.73,24.05h92.67c6.45,0,6.45-9.97,0-9.97h-92.67c-7.04,0-5.87-8.8-1.76-9.38h0Zm94.43-42.23h-28.74v11.14h25.81l2.93-11.14Zm-36.95,0h-30.5v11.14h30.5v-11.14Zm-38.71,0h-28.74l2.93,11.14h25.81v-11.14Zm-31.08-8.21h31.08v-11.73h-34.02l2.93,11.73h0Zm39.3,0h30.5v-11.73h-30.5v11.73Zm38.71,0h31.08l3.52-11.73h-34.6v11.73Zm22.29,27.57h-22.29v4.69l13.49-1.17c4.11-.59,7.04-1.17,8.8-3.52h0Zm-30.5,0h-30.5v9.38l30.5-3.52v-5.87h0Zm-38.71,0h-23.46l3.52,12.9,19.94-2.35v-10.56h0Z"/>
  <path d="m543.89,182.51c5.87,0,10.56,4.69,10.56,10.56s-4.69,11.14-10.56,11.14c-6.45,0-11.14-5.28-11.14-11.14s4.69-10.56,11.14-10.56Zm0,7.62c-2.35,0-3.52,1.17-3.52,2.93s1.17,3.52,3.52,3.52c1.76,0,2.93-1.76,2.93-3.52s-1.17-2.93-2.93-2.93Z"/>
  <path d="m481.14,182.51c5.87,0,10.56,4.69,10.56,10.56s-4.69,11.14-10.56,11.14-11.14-5.28-11.14-11.14,5.28-10.56,11.14-10.56Zm0,7.62c-1.76,0-3.52,1.17-3.52,2.93s1.76,3.52,3.52,3.52,2.93-1.76,2.93-3.52-1.17-2.93-2.93-2.93Z"/>
</svg>