<?xml version="1.0" encoding="UTF-8"?>
<svg id="Layer_3" data-name="Layer 3" xmlns="http://www.w3.org/2000/svg" viewBox="0 0 668.28 231">
  <defs>
    <style>
      .cls-1 {
        stroke-width: 3px;
      }

      .cls-1, .cls-2 {
        fill: none;
        stroke: #000;
        stroke-miterlimit: 10;
      }

      .cls-2 {
        stroke-width: 4px;
      }
    </style>
  </defs>
  <polygon class="cls-2" points="55.4 126.78 118.02 191.28 229.48 131.79 229.48 93.59 170.93 35.04 55.4 88.58 55.4 126.78"/>
  <polyline class="cls-2" points="55.4 88.58 119.9 153.08 156.96 132.96"/>
  <polyline class="cls-2" points="95.59 69.95 157.02 131.38 157.02 170.46"/>
  <polyline class="cls-2" points="175.6 160.54 175.6 122.84 114.46 61.69"/>
  <line class="cls-2" x1="119.9" y1="153.08" x2="118.02" y2="191.28"/>
  <polygon class="cls-1" points="118.75 177.22 64.06 121.96 64.06 110.17 119.3 164.83 118.75 177.22"/>
  <line class="cls-2" x1="118.75" y1="177.22" x2="157.02" y2="156.65"/>
  <polyline class="cls-2" points="175.6 148.27 229.48 119.98 229.48 108.98 175.6 135.39 175.6 160.54 158.13 169.87 157.02 145.04 119.3 164.83"/>
  <polygon class="cls-1" points="143.21 62.52 161.19 66.12 165.29 57.24 143.21 58.95 143.21 62.52"/>
  <polygon class="cls-1" points="167.05 80.32 178.32 71.1 181.39 82.37 167.05 80.32"/>
  <polygon class="cls-1" points="170.12 65.5 165.74 66.18 150.31 68.58 150.31 65.5 170.12 65.5"/>
  <polygon class="cls-1" points="193.34 89.11 169.44 90.48 186.85 73.23 193.34 89.11"/>
  <polygon class="cls-1" points="196.76 83.08 190.56 81.85 180.02 102.26 194.03 97.17 196.76 83.08"/>
  <polygon class="cls-1" points="156.96 65.97 162.08 82.37 175.05 76.82 173.35 62.56 156.96 65.97"/>
  <line class="cls-2" x1="175.6" y1="122.84" x2="229.48" y2="93.59"/>
</svg>