<?xml version="1.0" encoding="UTF-8"?>
<svg id="Layer_1" data-name="Layer 1" xmlns="http://www.w3.org/2000/svg" viewBox="0 0 178.08 161.11">
  <defs>
    <style>
      .cls-1 {
        stroke-width: 3px;
      }

      .cls-1, .cls-2 {
        fill: none;
        stroke: #000;
        stroke-miterlimit: 10;
      }

      .cls-2 {
        stroke-width: 4px;
      }
    </style>
  </defs>
  <polygon class="cls-2" points="2 94.14 64.62 158.64 176.08 99.15 176.08 60.95 117.53 2.4 2 55.94 2 94.14"/>
  <polyline class="cls-2" points="2 55.94 66.5 120.44 103.56 100.32"/>
  <polyline class="cls-2" points="42.2 37.31 103.62 98.74 103.62 137.82"/>
  <polyline class="cls-2" points="122.2 127.91 122.2 90.2 61.06 29.06"/>
  <line class="cls-2" x1="66.5" y1="120.44" x2="64.62" y2="158.64"/>
  <polygon class="cls-1" points="65.35 144.58 10.66 89.32 10.66 77.53 65.9 132.19 65.35 144.58"/>
  <line class="cls-2" x1="65.35" y1="144.58" x2="103.62" y2="124.01"/>
  <polyline class="cls-2" points="122.2 115.63 176.08 87.34 176.08 76.34 122.2 102.75 122.2 127.91 104.73 137.23 103.62 112.4 65.9 132.19"/>
  <polygon class="cls-1" points="89.81 29.88 107.79 33.49 111.89 24.61 89.81 26.31 89.81 29.88"/>
  <polygon class="cls-1" points="113.65 47.68 124.92 38.46 127.99 49.73 113.65 47.68"/>
  <polygon class="cls-1" points="116.72 32.86 112.34 33.54 96.91 35.94 96.91 32.86 116.72 32.86"/>
  <polygon class="cls-1" points="139.95 56.47 116.04 57.84 133.46 40.59 139.95 56.47"/>
  <polygon class="cls-1" points="143.36 50.44 137.16 49.21 126.63 69.62 140.63 64.53 143.36 50.44"/>
  <polygon class="cls-1" points="103.56 33.33 108.68 49.73 121.66 44.18 119.95 29.92 103.56 33.33"/>
  <line class="cls-2" x1="122.2" y1="90.2" x2="176.08" y2="60.95"/>
</svg>