<?xml version="1.0" encoding="UTF-8"?>
<svg id="Layer_1" data-name="Layer 1" xmlns="http://www.w3.org/2000/svg" viewBox="0 0 503.4 473.51">
  <path d="m96.8,282.24c5.04,24.64,16.8,47.6,33.04,66.64,8.4,10.08,18.48,18.48,29.12,26.32,10.64,7.84,22.4,13.44,34.72,18.48,25.2,9.52,53.2,12.32,79.52,7.84,28.56-5.04,56.56-16.24,79.52-34.72,21.28-16.8,39.2-37.52,49.28-62.72,1.68-3.92,2.8-7.28,3.92-11.2,1.12-2.8-1.68-6.16-3.92-7.84-3.36-2.24-8.4-2.24-12.32-1.68-5.04.56-10.08,2.24-14,5.04-3.36,2.24-5.6,5.04-6.72,8.4-.56,2.24-1.12,3.92-2.24,6.16.56-1.12.56-2.24,1.12-2.8-5.04,12.32-11.76,24.08-19.6,34.16.56-1.12,1.68-1.68,2.24-2.8-6.72,8.4-14.56,16.24-22.96,23.52,1.12-1.12,2.24-1.68,3.36-2.8-7.28,5.6-15.12,11.2-22.96,15.68,1.12-.56,2.8-1.68,3.92-2.24-6.72,3.92-14,6.72-21.84,9.52,1.68-.56,3.36-1.12,5.04-1.68-6.72,2.24-14,4.48-21.28,5.6,1.68-.56,3.36-.56,5.04-1.12-7.28,1.12-14.56,2.24-21.84,2.24h4.48c-7.84,0-15.12-.56-22.96-1.68,1.12,0,2.8.56,3.92.56-10.08-1.68-20.16-4.48-29.68-8.4,1.12.56,2.24,1.12,3.36,1.12-13.44-5.6-26.32-12.88-37.52-22.4,1.12.56,1.68,1.12,2.8,2.24-15.12-12.32-28-28-37.52-45.36.56,1.12,1.12,1.68,1.68,2.8-6.16-11.76-10.64-24.08-13.44-36.96-.56-3.36-4.48-5.04-7.28-6.16-4.48-1.12-9.52-1.12-14,.56-4.48,1.12-8.96,3.36-12.32,6.72-.56,2.24-2.8,5.04-1.68,8.96h0Z"/>
  <path d="m138.24,131.6c2.24,28.56,4.48,57.12,6.72,85.68,0,3.36,5.04,5.6,7.84,6.72,4.48,1.12,9.52,1.12,14,0s8.96-3.36,12.32-6.72c.56-1.12,1.68-2.24,2.24-3.36,1.12-2.24,1.68-3.92,1.12-6.72-2.24-28.56-4.48-57.12-6.72-85.68,0-3.36-5.04-5.6-7.84-6.72-4.48-1.12-9.52-1.12-14,0s-8.96,3.36-12.32,6.72c-.56,1.12-1.68,2.24-2.24,3.36-1.68,2.24-1.68,4.48-1.12,6.72h0Z"/>
  <path d="m294.48,131.6c2.24,28.56,4.48,57.12,6.72,85.68,0,2.24,5.6,2.24,6.72,2.24,4.48,0,9.52-.56,13.44-1.68,4.48-1.12,8.96-2.8,12.32-5.04,1.68-1.12,4.48-2.8,4.48-5.6-2.24-28.56-4.48-57.12-6.72-85.68,0-2.24-5.6-2.24-6.72-2.24-4.48,0-9.52.56-13.44,1.68-4.48,1.12-8.96,2.8-12.32,5.04-2.24,1.12-5.04,2.8-4.48,5.6h0Z"/>
  <path d="m237.36,2.24c-49.28,5.6-97.44,26.32-136.64,56.56-36.96,29.12-66.64,67.2-84,111.44-18.48,47.04-22.96,100.8-6.72,148.96,14,40.32,40.88,76.72,74.48,103.04,34.72,27.44,76.72,45.36,120.4,49.84,50.4,5.6,100.8-5.6,145.6-27.44,40.88-20.16,77.28-50.4,103.6-86.8,28-38.64,45.36-84.56,48.72-132.16,1.68-25.76,0-52.08-6.72-77.28-6.16-24.08-16.8-47.04-31.36-67.2-26.88-38.64-67.76-66.08-113.68-76.71-11.76-2.8-23.52-3.92-35.84-4.48-4.48,0-10.08,1.12-14.56,2.8-3.36,1.12-7.84,3.36-10.08,6.72-1.12,2.24-2.24,4.48,0,6.72,2.8,2.24,6.72,2.24,9.52,2.24h2.8-.56c1.68,0,3.36.56,5.6.56,3.36.56,6.72.56,10.08,1.12,3.36.56,7.28,1.12,10.64,2.24.56,0,1.12,0,1.12.56-.56,0-1.12-.56-2.24-.56,1.12,0,1.68.56,2.8.56,1.68.56,3.36,1.12,5.04,1.68,13.44,3.92,26.32,10.08,38.08,17.36-.56-.56-1.68-1.12-2.24-1.68,20.16,12.32,38.08,28,52.64,46.48,3.92,5.04,7.84,10.64,11.76,16.24-.56-.56-.56-1.12-1.12-1.68,17.92,28.56,28,61.6,30.8,95.2.56,9.52,1.12,19.6.56,29.12v-2.24c-1.12,31.36-8.4,62.16-21.28,90.72-3.36,7.28-6.72,14.56-10.64,21.28.56-.56,1.12-1.68,1.12-2.24-12.32,21.28-27.44,40.88-44.8,58.24-1.68,1.68,2.24-2.24.56-.56l-1.68,1.68-3.36,3.36c-2.24,2.24-4.48,3.92-6.72,6.16-4.48,3.92-9.52,7.84-14.56,11.2-2.24,1.68-5.04,3.36-7.28,5.6-1.12.56-6.16,3.92-1.12.56-1.12.56-2.8,1.68-3.92,2.24-5.04,3.36-10.64,6.16-15.68,9.52-2.8,1.68-5.6,2.8-8.4,3.92-.56.56-1.12.56-2.24,1.12-1.68.56,3.36-1.68,2.8-1.12-.56,0-.56.56-1.12.56-1.12.56-2.8,1.12-3.92,1.68-5.6,2.24-11.2,4.48-16.8,6.72-1.68.56-2.8,1.12-4.48,1.68-.56,0,5.04-1.68,3.36-1.12q-.56,0-1.12.56c-.56,0-1.68.56-2.24.56-2.8,1.12-5.6,1.68-8.96,2.8-2.8.56-6.16,1.68-8.96,2.24-1.68.56-7.84,1.68,0,0-1.68.56-2.8.56-4.48,1.12-6.16,1.12-12.32,1.68-17.92,2.8h-2.24c-3.36.56,3.92-.56,1.68,0-1.68,0-2.8,0-4.48.56-2.8,0-6.16,0-8.96.56h-13.44,1.68-2.8c-6.16-.56-11.76-1.12-17.92-2.24-2.8-.56-6.16-1.12-8.96-1.68-1.68-.56-2.8-.56-4.48-1.12-.56,0-1.12-.56-1.68-.56-1.12,0-2.24-.56,1.68.56q-.56,0-1.12-.56c-5.6-1.68-11.76-3.36-17.36-5.04-11.2-3.92-22.4-8.96-33.04-14.56-2.8-1.68-5.04-2.8-7.84-4.48.56.56,1.68,1.12,2.24,1.68-24.64-14.56-46.48-33.6-64.4-55.44-5.04-6.16-9.52-12.88-14-19.6.56.56.56,1.12,1.12,1.68-15.68-25.2-26.32-53.2-29.68-82.88-1.12-10.08-1.68-20.72-1.12-31.36v2.24c1.12-30.24,8.96-59.92,21.28-87.36,2.8-6.16,6.16-12.32,9.52-18.48-.56.56-1.12,1.68-1.12,2.24,7.28-12.88,15.68-25.2,25.2-36.96,5.04-5.6,10.08-11.2,15.12-16.8l1.68-1.68c.56-.56,3.36-2.8,0,0,1.12-1.12,2.8-2.8,3.92-3.92,2.8-2.24,5.6-5.04,8.4-7.28,5.6-5.04,11.76-9.52,17.92-14,1.12-1.12,2.8-1.68,3.92-2.8.56-.56,1.68-1.12,2.24-1.68-4.48,3.36-1.12.56,0,0,3.36-2.24,6.16-3.92,9.52-5.6,3.36-1.68,6.16-3.92,9.52-5.6,1.68-.56,3.36-1.68,5.04-2.24.56-.56,1.68-.56,2.24-1.12.56,0,.56-.56,1.12-.56-5.6,2.8-2.8,1.68-1.68.56,6.72-3.36,13.44-6.16,20.72-8.4,1.12-.56,2.24-.56,3.36-1.12.56,0,1.12-.56,1.12-.56,0,0-5.6,1.68-2.8,1.12,1.68-.56,3.92-1.12,5.6-1.68,3.92-1.12,7.84-2.24,11.76-3.36,1.12,0,2.24-.56,3.36-.56s5.04-1.12.56,0c-3.92,1.12,0,0,.56,0,1.12,0,2.24-.56,3.36-.56,3.92-.56,8.4-1.12,12.88-1.68s10.08-2.24,14-4.48c2.24-1.12,6.72-3.92,7.28-7.28,1.69-9.5-11.19-8.94-15.11-8.38h0Z"/>
</svg>